<svg width="207" height="35" viewBox="0 0 207 35" fill="none" xmlns="http://www.w3.org/2000/svg">
<path d="M17.368 27.256L0.232 20.74V16.06L17.368 9.544V14.044L1.924 19.66V17.14L17.368 22.756V27.256ZM34.7068 31.432C32.7148 31.432 30.8788 31.12 29.1988 30.496C27.5428 29.848 26.0908 28.936 24.8428 27.76C23.6188 26.584 22.6588 25.204 21.9628 23.62C21.2908 22.036 20.9548 20.296 20.9548 18.4C20.9548 16.504 21.2908 14.764 21.9628 13.18C22.6588 11.596 23.6308 10.216 24.8788 9.04C26.1268 7.864 27.5908 6.964 29.2708 6.34C30.9508 5.692 32.7988 5.368 34.8148 5.368C37.0468 5.368 39.0508 5.74 40.8268 6.484C42.6268 7.228 44.1388 8.308 45.3628 9.724L41.6188 13.18C40.7068 12.22 39.7108 11.512 38.6308 11.056C37.5508 10.576 36.3748 10.336 35.1028 10.336C33.8788 10.336 32.7628 10.528 31.7548 10.912C30.7468 11.296 29.8708 11.848 29.1268 12.568C28.4068 13.288 27.8428 14.14 27.4348 15.124C27.0508 16.108 26.8588 17.2 26.8588 18.4C26.8588 19.576 27.0508 20.656 27.4348 21.64C27.8428 22.624 28.4068 23.488 29.1268 24.232C29.8708 24.952 30.7348 25.504 31.7188 25.888C32.7268 26.272 33.8308 26.464 35.0308 26.464C36.1828 26.464 37.2988 26.284 38.3788 25.924C39.4828 25.54 40.5508 24.904 41.5828 24.016L44.8948 28.228C43.5268 29.26 41.9308 30.052 40.1068 30.604C38.3068 31.156 36.5068 31.432 34.7068 31.432ZM39.5668 27.472V18.004H44.8948V28.228L39.5668 27.472ZM58.0882 31.288C56.4802 31.288 55.0402 30.976 53.7682 30.352C52.5202 29.728 51.5482 28.78 50.8522 27.508C50.1562 26.212 49.8082 24.568 49.8082 22.576V11.632H55.4242V21.748C55.4242 23.356 55.7602 24.544 56.4322 25.312C57.1282 26.056 58.1002 26.428 59.3482 26.428C60.2122 26.428 60.9802 26.248 61.6522 25.888C62.3242 25.504 62.8522 24.928 63.2362 24.16C63.6202 23.368 63.8122 22.384 63.8122 21.208V11.632H69.4282V31H64.1002V25.672L65.0722 27.22C64.4242 28.564 63.4642 29.584 62.1922 30.28C60.9442 30.952 59.5762 31.288 58.0882 31.288ZM81.1471 31.288C79.4911 31.288 77.8951 31.096 76.3591 30.712C74.8471 30.304 73.6471 29.8 72.7591 29.2L74.6311 25.168C75.5191 25.72 76.5631 26.176 77.7631 26.536C78.9871 26.872 80.1871 27.04 81.3631 27.04C82.6591 27.04 83.5711 26.884 84.0991 26.572C84.6511 26.26 84.9271 25.828 84.9271 25.276C84.9271 24.82 84.7111 24.484 84.2791 24.268C83.8711 24.028 83.3191 23.848 82.6231 23.728C81.9271 23.608 81.1591 23.488 80.3191 23.368C79.5031 23.248 78.6751 23.092 77.8351 22.9C76.9951 22.684 76.2271 22.372 75.5311 21.964C74.8351 21.556 74.2711 21.004 73.8391 20.308C73.4311 19.612 73.2271 18.712 73.2271 17.608C73.2271 16.384 73.5751 15.304 74.2711 14.368C74.9911 13.432 76.0231 12.7 77.3671 12.172C78.7111 11.62 80.3191 11.344 82.1911 11.344C83.5111 11.344 84.8551 11.488 86.2231 11.776C87.5911 12.064 88.7311 12.484 89.6431 13.036L87.7711 17.032C86.8351 16.48 85.8871 16.108 84.9271 15.916C83.9911 15.7 83.0791 15.592 82.1911 15.592C80.9431 15.592 80.0311 15.76 79.4551 16.096C78.8791 16.432 78.5911 16.864 78.5911 17.392C78.5911 17.872 78.7951 18.232 79.2031 18.472C79.6351 18.712 80.1991 18.904 80.8951 19.048C81.5911 19.192 82.3471 19.324 83.1631 19.444C84.0031 19.54 84.8431 19.696 85.6831 19.912C86.5231 20.128 87.2791 20.44 87.9511 20.848C88.6471 21.232 89.2111 21.772 89.6431 22.468C90.0751 23.14 90.2911 24.028 90.2911 25.132C90.2911 26.332 89.9311 27.4 89.2111 28.336C88.4911 29.248 87.4471 29.968 86.0791 30.496C84.7351 31.024 83.0911 31.288 81.1471 31.288ZM101.676 31.288C99.3961 31.288 97.6201 30.712 96.3481 29.56C95.0761 28.384 94.4401 26.644 94.4401 24.34V7.348H100.056V24.268C100.056 25.084 100.272 25.72 100.704 26.176C101.136 26.608 101.724 26.824 102.468 26.824C103.356 26.824 104.112 26.584 104.736 26.104L106.248 30.064C105.672 30.472 104.976 30.784 104.16 31C103.368 31.192 102.54 31.288 101.676 31.288ZM91.4521 16.384V12.064H104.88V16.384H91.4521ZM121.281 31V27.22L120.921 26.392V19.624C120.921 18.424 120.549 17.488 119.805 16.816C119.085 16.144 117.969 15.808 116.457 15.808C115.425 15.808 114.405 15.976 113.397 16.312C112.413 16.624 111.573 17.056 110.877 17.608L108.861 13.684C109.917 12.94 111.189 12.364 112.677 11.956C114.165 11.548 115.677 11.344 117.213 11.344C120.165 11.344 122.457 12.04 124.089 13.432C125.721 14.824 126.537 16.996 126.537 19.948V31H121.281ZM115.377 31.288C113.865 31.288 112.569 31.036 111.489 30.532C110.409 30.004 109.581 29.296 109.005 28.408C108.429 27.52 108.141 26.524 108.141 25.42C108.141 24.268 108.417 23.26 108.969 22.396C109.545 21.532 110.445 20.86 111.669 20.38C112.893 19.876 114.489 19.624 116.457 19.624H121.605V22.9H117.069C115.749 22.9 114.837 23.116 114.333 23.548C113.853 23.98 113.613 24.52 113.613 25.168C113.613 25.888 113.889 26.464 114.441 26.896C115.017 27.304 115.797 27.508 116.781 27.508C117.717 27.508 118.557 27.292 119.301 26.86C120.045 26.404 120.585 25.744 120.921 24.88L121.785 27.472C121.377 28.72 120.633 29.668 119.553 30.316C118.473 30.964 117.081 31.288 115.377 31.288ZM136.524 31L128.388 11.632H134.184L140.952 28.3H138.072L145.092 11.632H150.492L142.32 31H136.524ZM161.472 31.288C159.408 31.288 157.572 30.856 155.964 29.992C154.38 29.128 153.12 27.952 152.184 26.464C151.272 24.952 150.816 23.236 150.816 21.316C150.816 19.372 151.272 17.656 152.184 16.168C153.12 14.656 154.38 13.48 155.964 12.64C157.572 11.776 159.408 11.344 161.472 11.344C163.512 11.344 165.336 11.776 166.944 12.64C168.552 13.48 169.812 14.644 170.724 16.132C171.636 17.62 172.092 19.348 172.092 21.316C172.092 23.236 171.636 24.952 170.724 26.464C169.812 27.952 168.552 29.128 166.944 29.992C165.336 30.856 163.512 31.288 161.472 31.288ZM161.472 26.68C162.408 26.68 163.248 26.464 163.992 26.032C164.736 25.6 165.324 24.988 165.756 24.196C166.188 23.38 166.404 22.42 166.404 21.316C166.404 20.188 166.188 19.228 165.756 18.436C165.324 17.644 164.736 17.032 163.992 16.6C163.248 16.168 162.408 15.952 161.472 15.952C160.536 15.952 159.696 16.168 158.952 16.6C158.208 17.032 157.608 17.644 157.152 18.436C156.72 19.228 156.504 20.188 156.504 21.316C156.504 22.42 156.72 23.38 157.152 24.196C157.608 24.988 158.208 25.6 158.952 26.032C159.696 26.464 160.536 26.68 161.472 26.68ZM172.066 34.6L183.946 0.687998H188.95L177.07 34.6H172.066ZM189.584 27.256V22.756L205.028 17.14V19.66L189.584 14.044V9.544L206.72 16.06V20.74L189.584 27.256Z" fill="#6965FF"/>
</svg>
